<?xml version="1.0" encoding="UTF-8"?>
<svg xmlns="http://www.w3.org/2000/svg" xmlns:xlink="http://www.w3.org/1999/xlink" width="135pt" height="225pt" viewBox="0 0 135 225" version="1.2">
<defs>
<clipPath id="clip1">
  <path d="M 34.808594 8 L 88.808594 8 L 88.808594 69.371094 L 34.808594 69.371094 Z M 34.808594 8 "/>
</clipPath>
</defs>
<g id="surface1">
<g clip-path="url(#clip1)" clip-rule="nonzero">
<path style=" stroke:none;fill-rule:nonzero;fill:rgb(0%,0%,0%);fill-opacity:1;" d="M 55.183594 61.785156 C 53.609375 62.699219 53.308594 62.804688 51.824219 63.328125 C 51.46875 63.449219 50.925781 63.667969 52.03125 64.300781 L 59.457031 68.734375 C 60.164062 69.152344 60.984375 69.367188 61.792969 69.367188 L 61.796875 69.371094 C 62.613281 69.371094 63.421875 69.152344 64.128906 68.738281 L 86.359375 55.785156 C 87.804688 54.933594 88.695312 53.363281 88.695312 51.6875 L 88.695312 25.792969 C 88.695312 24.101562 87.808594 22.535156 86.359375 21.695312 L 64.128906 8.726562 C 62.734375 7.925781 60.867188 7.925781 59.457031 8.726562 L 37.253906 21.683594 C 35.8125 22.523438 34.921875 24.101562 34.921875 25.78125 L 34.921875 51.675781 C 34.921875 53.363281 35.808594 54.933594 37.253906 55.773438 L 43.078125 59.164062 C 45.894531 60.574219 46.902344 60.574219 48.191406 60.574219 C 52.367188 60.574219 54.777344 58.023438 54.777344 53.574219 L 54.777344 27.996094 C 54.777344 27.632812 54.476562 27.351562 54.125 27.351562 L 51.308594 27.351562 C 50.949219 27.351562 50.65625 27.628906 50.65625 27.996094 L 50.65625 53.5625 C 50.65625 55.542969 48.636719 57.5 45.324219 55.835938 L 39.234375 52.285156 C 39.023438 52.175781 38.890625 51.933594 38.890625 51.6875 L 38.890625 25.792969 C 38.890625 25.539062 39.023438 25.292969 39.238281 25.171875 L 61.441406 12.214844 C 61.644531 12.09375 61.925781 12.09375 62.128906 12.214844 L 84.347656 25.160156 C 84.5625 25.292969 84.695312 25.523438 84.695312 25.78125 L 84.695312 51.6875 C 84.695312 51.929688 84.566406 52.171875 84.359375 52.296875 L 62.128906 65.25 C 61.9375 65.375 61.648438 65.375 61.441406 65.25 L 55.738281 61.835938 C 55.570312 61.726562 55.355469 61.6875 55.183594 61.785156 Z M 55.183594 61.785156 "/>
</g>
<path style=" stroke:none;fill-rule:nonzero;fill:rgb(0%,0%,0%);fill-opacity:1;" d="M 68.652344 47.601562 C 62.769531 47.601562 61.480469 46.109375 61.050781 43.15625 C 61 42.839844 60.738281 42.609375 60.410156 42.609375 L 57.535156 42.609375 C 57.175781 42.609375 56.898438 42.898438 56.898438 43.253906 C 56.898438 47.03125 58.929688 51.539062 68.667969 51.539062 C 75.691406 51.527344 79.742188 48.722656 79.742188 43.835938 L 79.734375 43.839844 C 79.734375 38.992188 76.484375 37.703125 69.660156 36.789062 C 62.75 35.867188 62.054688 35.390625 62.054688 33.765625 C 62.054688 32.417969 62.648438 30.617188 67.761719 30.617188 C 72.324219 30.617188 74.007812 31.613281 74.703125 34.722656 C 74.765625 35.015625 75.03125 35.234375 75.332031 35.234375 L 78.21875 35.234375 C 78.398438 35.234375 78.570312 35.164062 78.6875 35.027344 C 78.808594 34.890625 78.867188 34.710938 78.859375 34.53125 C 78.414062 29.171875 74.886719 26.679688 67.761719 26.679688 C 61.417969 26.679688 57.636719 29.378906 57.636719 33.910156 C 57.636719 38.820312 61.40625 40.183594 67.484375 40.785156 C 74.765625 41.507812 75.328125 42.585938 75.328125 44.03125 C 75.335938 46.535156 73.335938 47.601562 68.652344 47.601562 Z M 68.652344 47.601562 "/>
</g>
</svg>
